<svg xmlns="http://www.w3.org/2000/svg" viewBox="0 0 60 60"><path d="M28.404 7.758c-.975-.552-2.131-.534-3.09.044-.046.027-.09.059-.13.093l-13.55 11.463H1c-.553 0-1 .447-1 1v19c0 .266.105.52.293.707s.441.293.707.293l10.61-.005 13.543 12.44c.05.046.104.086.161.12.492.297 1.037.446 1.582.446.517-.001 1.033-.134 1.508-.402.999-.564 1.596-1.594 1.596-2.756V10.514c0-1.161-.597-2.191-1.596-2.756zM28 50.201c0 .431-.217.81-.579 1.015-.155.087-.548.255-1 .026L13 38.913v-4.556c0-.553-.447-1-1-1s-1 .447-1 1v3.996l-9 .004v-17h9v4c0 .553.447 1 1 1s1-.447 1-1v-4.536l13.405-11.34c.461-.242.861-.07 1.016.018.362.205.579.584.579 1.015v39.687zM52.026 29.858c0-8.347-5.316-15.76-13.229-18.447-.522-.177-1.091.103-1.269.626-.177.522.103 1.091.626 1.269 7.101 2.411 11.872 9.063 11.872 16.553 0 7.483-4.762 14.136-11.849 16.554-.522.178-.802.746-.623 1.27.142.415.53.677.946.677.107 0 .216-.017.323-.054 7.898-2.695 13.203-10.108 13.203-18.448z"/><path d="M44.453 6.374c-.508-.213-1.095.021-1.312.53-.215.509.022 1.096.531 1.312C52.376 11.909 58 20.405 58 29.858c0 9.777-5.894 18.38-15.015 21.914-.515.2-.771.779-.571 1.294.153.396.532.639.933.639.12 0 .242-.021.361-.067C53.605 49.801 60 40.467 60 29.858 60 19.6 53.897 10.382 44.453 6.374z"/><path d="M43.026 29.858c0-5.972-4.009-11.302-9.749-12.962-.53-.151-1.084.152-1.238.684-.153.53.152 1.085.684 1.238 4.889 1.413 8.304 5.953 8.304 11.04s-3.415 9.627-8.304 11.04c-.531.153-.837.708-.684 1.238.127.438.526.723.961.723.092 0 .185-.013.277-.039 5.741-1.661 9.749-6.991 9.749-12.962z"/></svg>